<svg xmlns="http://www.w3.org/2000/svg" xmlns:xlink="http://www.w3.org/1999/xlink" fill="none" version="1.1" width="20" height="20" viewBox="0 0 20 20"><defs><clipPath id="master_svg0_549_28043"><rect x="0" y="0" width="20" height="20" rx="0"/></clipPath></defs><g clip-path="url(#master_svg0_549_28043)"><g><path d="M16.2518,7.6C16.2518,7.6,13.8571,7.6,13.8571,7.6C13.8571,7.6,13.8571,4.6,13.8571,4.6C13.8571,4.27,13.5679,4,13.2143,4C13.2143,4,1.642857,4,1.642857,4C1.289286,4,1,4.27,1,4.6C1,4.6,1,13,1,13C1,13.33,1.289286,13.6,1.642857,13.6C1.642857,13.6,2.28571,13.6,2.28571,13.6C2.28571,14.92,3.44286,16,4.857139999999999,16C6.27143,16,7.42857,14.92,7.42857,13.6C7.42857,13.6,12.5714,13.6,12.5714,13.6C12.5714,14.92,13.7286,16,15.1429,16C16.5571,16,17.7143,14.92,17.7143,13.6C17.7143,13.6,18.3571,13.6,18.3571,13.6C18.7107,13.6,19,13.33,19,13C19,13,19,11.305,19,11.305C19,11.245000000000001,18.9839,11.184999999999999,18.9518,11.14C18.9518,11.14,16.525,7.734999999999999,16.525,7.734999999999999C16.4607,7.645,16.3643,7.6,16.2518,7.6C16.2518,7.6,16.2518,7.6,16.2518,7.6ZM5.11429,14.77C4.21429,14.935,3.42679,14.2,3.60357,13.36C3.7,12.895,4.101789999999999,12.505,4.616070000000001,12.415C5.51607,12.25,6.30357,12.985,6.12679,13.825C6.01429,14.305,5.6125,14.68,5.11429,14.77C5.11429,14.77,5.11429,14.77,5.11429,14.77ZM15.4,14.77C14.5,14.935,13.7125,14.2,13.8893,13.36C13.9857,12.895,14.3875,12.505,14.9018,12.415C15.8018,12.25,16.5893,12.985,16.4125,13.825C16.3,14.305,15.8982,14.68,15.4,14.77ZM13.8571,11.2C13.8571,11.2,13.8571,8.8,13.8571,8.8C13.8571,8.8,15.7696,8.8,15.7696,8.8C15.8821,8.8,15.9786,8.844999999999999,16.0268,8.934999999999999C16.0268,8.934999999999999,17.7143,11.2,17.7143,11.2C17.7143,11.2,13.8571,11.2,13.8571,11.2Z" fill="#FFFFFF" fill-opacity="1"/></g></g></svg>