<svg xmlns="http://www.w3.org/2000/svg" width="32" height="32"><defs><clipPath id="a"><rect width="32" height="32" rx="0"/></clipPath></defs><g clip-path="url(#a)"><path fill-opacity=".7" d="m8.353 5.076 1.53 2.185A10.654 10.654 0 0 0 5.333 16c0 5.891 4.776 10.667 10.667 10.667S26.667 21.89 26.667 16c0-3.615-1.799-6.81-4.55-8.74l1.53-2.184A13.317 13.317 0 0 1 29.333 16c0 7.364-5.97 13.333-13.333 13.333-7.364 0-13.333-5.97-13.333-13.333 0-4.519 2.248-8.513 5.686-10.924ZM14.667 16V2.667h2.666V16h-2.666Z"/></g></svg>