<svg xmlns="http://www.w3.org/2000/svg" xmlns:xlink="http://www.w3.org/1999/xlink" fill="none" version="1.1" width="20" height="20" viewBox="0 0 20 20"><defs><clipPath id="master_svg0_549_28040"><rect x="0" y="0" width="20" height="20" rx="0"/></clipPath></defs><g clip-path="url(#master_svg0_549_28040)"><g><path d="M6.11111,7.33333C6.11111,7.33333,6.11111,5.54333,6.11111,5.54333C6.11111,3.62,7.515,2,9.384,2C9.384,2,10.616,2,10.616,2C12.48267,2,13.8889,3.622,13.8889,5.54333C13.8889,5.54333,13.8889,7.33333,13.8889,7.33333C13.8889,7.33333,15.4483,7.33333,15.4483,7.33333C16.3054,7.33333,17,7.93,17,8.66267C17,8.66267,17,16.6707,17,16.6707C17,16.8453,16.959899999999998,17.0182,16.8819,17.1795C16.8039,17.340899999999998,16.6896,17.4874,16.5455,17.6109C16.401400000000002,17.734299999999998,16.2303,17.8322,16.042099999999998,17.899C15.8538,17.9658,15.6521,18.0001,15.4483,18C15.4483,18,4.55167,18,4.55167,18C4.14034,17.9998,3.745902,17.8597,3.454975,17.610500000000002C3.164048,17.3613,3.000412106,17.0232,3,16.6707C3,16.6707,3,8.66267,3,8.66267C3,7.92867,3.6945550000000003,7.33333,4.55167,7.33333C4.55167,7.33333,6.11111,7.33333,6.11111,7.33333ZM7.66667,7.33333C7.66667,7.33333,12.33333,7.33333,12.33333,7.33333C12.33333,7.33333,12.33333,5.54333,12.33333,5.54333C12.33333,4.28667,11.50578,3.33333,10.616,3.33333C10.616,3.33333,9.384,3.33333,9.384,3.33333C8.491109999999999,3.33333,7.66667,4.28533,7.66667,5.54333C7.66667,5.54333,7.66667,7.33333,7.66667,7.33333ZM10.77778,12.4893C11.24444,12.2593,11.55556,11.828,11.55556,11.33333C11.55556,10.592,10.85944,10,10,10C9.135110000000001,10,8.44444,10.59667,8.44444,11.33333C8.44444,11.83,8.75711,12.26,9.22222,12.4893C9.22222,12.4893,9.22222,13.994,9.22222,13.994C9.22171,14.0815,9.24132,14.1683,9.27994,14.2494C9.31855,14.3304,9.37542,14.4042,9.44728,14.4664C9.51914,14.5286,9.60459,14.5781,9.69876,14.612C9.79293,14.6459,9.89397,14.6636,9.99611,14.664C10.09825,14.6644,10.19949,14.6476,10.29405,14.6145C10.38861,14.5814,10.47464,14.5327,10.54722,14.4711C10.619810000000001,14.4095,10.67753,14.3363,10.71708,14.2555C10.75664,14.1748,10.77727,14.0882,10.77778,14.0007C10.77778,14.0007,10.77778,12.4893,10.77778,12.4893Z" fill="#FFFFFF" fill-opacity="1"/></g></g></svg>