<svg xmlns="http://www.w3.org/2000/svg" xmlns:xlink="http://www.w3.org/1999/xlink" fill="none" version="1.1" width="72" height="72" viewBox="0 0 72 72"><defs><clipPath id="master_svg0_1372_52060"><rect x="0" y="0" width="72" height="72" rx="0"/></clipPath></defs><g clip-path="url(#master_svg0_1372_52060)"><g><path d="M65.3975900970459,42.003C62.8898900970459,54.3504,52.7984900970459,63.9435,40.1969900970459,65.7084C40.1969900970459,65.7084,40.1975900970459,59.634,40.1975900970459,59.634C49.4777900970459,57.9963,56.918690097045896,51.0258,59.241890097045896,42.0012C59.241890097045896,42.0012,65.3975900970459,42.003,65.3975900970459,42.003ZM12.754710097045898,42.0012C15.052710097045898,50.9277,22.357290097045897,57.8442,31.4966900970459,59.5785C31.4966900970459,59.5785,31.4966900970459,65.66460000000001,31.4966900970459,65.66460000000001C19.0367900970459,63.7896,9.086640097045898,54.2514,6.599040097045899,42.003C6.599040097045899,42.003,12.754710097045898,42.0012,12.754710097045898,42.0012ZM53.9981900970459,33C53.9981900970459,33,53.9981900970459,39,53.9981900970459,39C53.9981900970459,39,50.9981900970459,39,50.9981900970459,39C44.5715900970459,39,39.3251900970459,44.052,39.0128900970459,50.4012C39.0128900970459,50.4012,38.9981900970459,51,38.9981900970459,51C38.9981900970459,51,38.9981900970459,54,38.9981900970459,54C38.9981900970459,54,32.9981900970459,54,32.9981900970459,54C32.9981900970459,54,32.9981900970459,51,32.9981900970459,51C32.9981900970459,44.5734,27.9463900970459,39.3267,21.597190097045896,39.0147C21.597190097045896,39.0147,20.9982900970459,39,20.9982900970459,39C20.9982900970459,39,17.9982900970459,39,17.9982900970459,39C17.9982900970459,39,17.9982900970459,33,17.9982900970459,33C17.9982900970459,33,53.9981900970459,33,53.9981900970459,33ZM35.9981900970459,6C51.554390097045896,6,64.34489009704589,17.8399,65.8502900970459,32.999700000000004C65.8502900970459,32.999700000000004,59.8127900970459,33,59.8127900970459,33C58.336490097045896,21.161099999999998,48.2372900970459,12,35.9981900970459,12C23.759390097045898,12,13.660230097045899,21.161099999999998,12.183990097045898,33C12.183990097045898,33,6.146490097045898,32.999700000000004,6.146490097045898,32.999700000000004C7.651800097045898,17.8399,20.442390097045898,6,35.9981900970459,6Z" fill="#F19017" fill-opacity="1"/></g></g></svg>