<svg xmlns="http://www.w3.org/2000/svg" xmlns:xlink="http://www.w3.org/1999/xlink" fill="none" version="1.1" width="20" height="20" viewBox="0 0 20 20"><g><path d="M10,1.11716e-15C8.02219,-5.93492e-16,6.08879,0.58649,4.4443,1.6853C2.79981,2.78412,1.51809,4.3459,0.761209,6.17316C0.00433283,8.00043,-0.1937,10.0111,0.192152,11.9509C0.578004,13.8907,1.53041,15.6725,2.92894,17.0711C4.32746,18.4696,6.10929,19.422,8.0491,19.8078C9.98891,20.1937,11.9996,19.9957,13.8268,19.2388C15.6541,18.4819,17.2159,17.2002,18.3147,15.5557C19.4135,13.9112,20,11.9778,20,10C20,7.34783,18.9464,4.8043,17.0711,2.92893C15.1957,1.05357,12.6522,2.37397e-15,10,0C10,0,10,1.11716e-15,10,1.11716e-15ZM10,18.3333C8.35182,18.3333,6.74066,17.8446,5.37025,16.9289C3.99984,16.0132,2.93174,14.7117,2.30101,13.189C1.67028,11.6663,1.50525,9.99075,1.82679,8.37425C2.14834,6.75774,2.94201,5.27288,4.10745,4.10744C5.27288,2.94201,6.75774,2.14833,8.37425,1.82679C9.99076,1.50525,11.6663,1.67027,13.189,2.301C14.7117,2.93173,16.0132,3.99984,16.9289,5.37025C17.8446,6.74066,18.3333,8.35182,18.3333,10C18.3245,12.2044,17.4427,14.3154,15.8808,15.871C14.319,17.4266,12.2044,18.3,10,18.3C10,18.3,10,18.3333,10,18.3333ZM13.8667,12.5C13.8667,12.5,10.4167,10.5,10.4167,10.5C10.4167,10.5,10.4167,4.98333,10.4167,4.98333C10.4167,4.76232,10.3289,4.55036,10.1726,4.39408C10.0163,4.2378,9.80435,4.15,9.58333,4.15C9.36232,4.15,9.15036,4.2378,8.99408,4.39408C8.8378,4.55036,8.75,4.76232,8.75,4.98333C8.75,4.98333,8.75,10.8167,8.75,10.8167C8.75,11.125,9.13334,11.3833,9.38334,11.525C9.48878,11.6386,9.61642,11.7294,9.75834,11.7917C9.75834,11.7917,13.225,13.8667,13.225,13.8667C13.3134,13.9214,13.4123,13.9569,13.5153,13.9709C13.6182,13.9849,13.723,13.9772,13.8228,13.9481C13.9226,13.919,14.0152,13.8693,14.0945,13.8022C14.1738,13.735,14.2382,13.6519,14.2833,13.5583C14.3333,13.457,14.3621,13.3467,14.3681,13.2339C14.374,13.1211,14.357,13.0083,14.318,12.9023C14.2791,12.7963,14.219,12.6994,14.1414,12.6173C14.0638,12.5352,13.9703,12.4698,13.8667,12.425C13.8667,12.425,13.8667,12.5,13.8667,12.5Z" fill="#F19017" fill-opacity="1"/></g></svg>