<svg xmlns="http://www.w3.org/2000/svg" xmlns:xlink="http://www.w3.org/1999/xlink" fill="none" version="1.1" width="72" height="72" viewBox="0 0 72 72"><g><g><path d="M9.000000476837158,57C9.000000476837158,57,9.000000476837158,12,9.000000476837158,12C9.000000476837158,10.34316,10.34316047683716,9,12.000000476837158,9C12.000000476837158,9,39.00000047683716,9,39.00000047683716,9C40.65690047683716,9,42.00000047683716,10.34316,42.00000047683716,12C42.00000047683716,12,42.00000047683716,36,42.00000047683716,36C42.00000047683716,36,48.00000047683716,36,48.00000047683716,36C51.31380047683716,36,54.00000047683716,38.6862,54.00000047683716,42C54.00000047683716,42,54.00000047683716,54,54.00000047683716,54C54.00000047683716,55.6569,55.34310047683716,57,57.00000047683716,57C58.65690047683716,57,60.00000047683716,55.6569,60.00000047683716,54C60.00000047683716,54,60.00000047683716,33,60.00000047683716,33C60.00000047683716,33,54.00000047683716,33,54.00000047683716,33C52.34310047683716,33,51.00000047683716,31.6569,51.00000047683716,30C51.00000047683716,30,51.00000047683716,19.2426,51.00000047683716,19.2426C51.00000047683716,19.2426,46.02930047683716,14.272079999999999,46.02930047683716,14.272079999999999C46.02930047683716,14.272079999999999,50.272200476837156,10.02945,50.272200476837156,10.02945C50.272200476837156,10.02945,65.12130047683715,24.878700000000002,65.12130047683715,24.878700000000002C65.70720047683716,25.4645,66.00000047683716,26.2322,66.00000047683716,27C66.00000047683716,27,66.00000047683716,54,66.00000047683716,54C66.00000047683716,58.9707,61.97070047683716,63,57.00000047683716,63C52.02930047683716,63,48.00000047683716,58.9707,48.00000047683716,54C48.00000047683716,54,48.00000047683716,42,48.00000047683716,42C48.00000047683716,42,42.00000047683716,42,42.00000047683716,42C42.00000047683716,42,42.00000047683716,57,42.00000047683716,57C42.00000047683716,57,45.00000047683716,57,45.00000047683716,57C45.00000047683716,57,45.00000047683716,63,45.00000047683716,63C45.00000047683716,63,6.000000476837158,63,6.000000476837158,63C6.000000476837158,63,6.000000476837158,57,6.000000476837158,57C6.000000476837158,57,9.000000476837158,57,9.000000476837158,57ZM15.000000476837158,15C15.000000476837158,15,15.000000476837158,33,15.000000476837158,33C15.000000476837158,33,36.00000047683716,33,36.00000047683716,33C36.00000047683716,33,36.00000047683716,15,36.00000047683716,15C36.00000047683716,15,15.000000476837158,15,15.000000476837158,15Z" fill="#1E75F9" fill-opacity="1"/></g></g></svg>