<svg xmlns="http://www.w3.org/2000/svg" xmlns:xlink="http://www.w3.org/1999/xlink" fill="none" version="1.1" width="72" height="72" viewBox="0 0 72 72"><defs><clipPath id="master_svg0_549_29255"><rect x="0" y="0" width="72" height="72" rx="0"/></clipPath></defs><g clip-path="url(#master_svg0_549_29255)"><g><path d="M12.531944149475098,5.003009149475098C16.905314149475096,3.4482071494750977,21.976414149475097,4.4210321494750975,25.476914149475096,7.921514149475097C28.978414149475096,11.422994149475098,29.950814149475097,16.495914149475098,28.394114149475097,20.870114149475096C28.394114149475097,20.870114149475096,66.8571141494751,59.3335141494751,66.8571141494751,59.3335141494751C66.8571141494751,59.3335141494751,59.3335141494751,66.8571141494751,59.3335141494751,66.8571141494751C59.3335141494751,66.8571141494751,20.866514149475098,28.395314149475098,20.866514149475098,28.395314149475098C16.493014149475098,29.950214149475098,11.422034149475099,28.9773141494751,7.921544149475098,25.476814149475096C4.420049149475098,21.975314149475096,3.4476481494750977,16.9024141494751,5.004335149475097,12.528184149475099C5.004335149475097,12.528184149475099,12.937374149475097,20.461014149475098,12.937374149475097,20.461014149475098C15.015014149475098,22.538614149475098,18.383414149475097,22.538614149475098,20.461114149475097,20.461014149475098C22.538714149475098,18.383414149475097,22.538714149475098,15.014914149475098,20.461114149475097,12.937324149475097C20.461114149475097,12.937324149475097,12.531944149475098,5.003009149475098,12.531944149475098,5.003009149475098ZM49.3020141494751,11.683354149475097C49.3020141494751,11.683354149475097,60.5876141494751,5.413644149475098,60.5876141494751,5.413644149475098C60.5876141494751,5.413644149475098,65.6034141494751,10.429424149475096,65.6034141494751,10.429424149475096C65.6034141494751,10.429424149475096,59.3335141494751,21.7149141494751,59.3335141494751,21.7149141494751C59.3335141494751,21.7149141494751,53.0640141494751,22.968914149475097,53.0640141494751,22.968914149475097C53.0640141494751,22.968914149475097,45.5400141494751,30.4925141494751,45.5400141494751,30.4925141494751C45.5400141494751,30.4925141494751,40.5242141494751,25.476814149475096,40.5242141494751,25.476814149475096C40.5242141494751,25.476814149475096,48.0479141494751,17.9531141494751,48.0479141494751,17.9531141494751C48.0479141494751,17.9531141494751,49.3020141494751,11.683354149475097,49.3020141494751,11.683354149475097ZM24.2229141494751,39.270214149475095C24.2229141494751,39.270214149475095,31.746514149475097,46.7938141494751,31.746514149475097,46.7938141494751C31.746514149475097,46.7938141494751,14.191314149475097,64.3493141494751,14.191314149475097,64.3493141494751C12.113684149475098,66.4269141494751,8.745224149475098,66.4269141494751,6.667604149475098,64.3493141494751C4.712192149475098,62.3936141494751,4.597173149475098,59.2949141494751,6.322544149475098,57.2048141494751C6.322544149475098,57.2048141494751,6.667604149475098,56.8253141494751,6.667604149475098,56.8253141494751C6.667604149475098,56.8253141494751,24.2229141494751,39.270214149475095,24.2229141494751,39.270214149475095Z" fill="#00ABFF" fill-opacity="1"/></g></g></svg>